<?xml version="1.0" encoding="utf-8" ?>
<svg baseProfile="full" height="500px" version="1.1" width="500px" xmlns="http://www.w3.org/2000/svg" xmlns:ev="http://www.w3.org/2001/xml-events" xmlns:xlink="http://www.w3.org/1999/xlink"><defs /><defs><linearGradient id="spaceGradient" x1="0%" x2="0%" y1="0%" y2="100%"><stop offset="0%" stop-color="#070721" /><stop offset="50%" stop-color="#0B0B2A" /><stop offset="100%" stop-color="#1a1a4f" /></linearGradient><linearGradient id="engineGlow" x1="0%" x2="0%" y1="0%" y2="100%"><stop offset="0%" stop-color="#ffd700" /><stop offset="100%" stop-color="#ff6b00" /></linearGradient></defs><rect fill="url(#spaceGradient)" height="500px" width="500px" x="0" y="0" /><g fill="#ffffff"><circle cx="150" cy="80" opacity="0.9" r="1.8" /><circle cx="380" cy="280" opacity="0.9" r="1.8" /><circle cx="420" cy="380" opacity="0.9" r="1.8" /><circle cx="50" cy="50" opacity="0.7" r="1.2" /><circle cx="280" cy="40" opacity="0.7" r="1.5" /><circle cx="400" cy="90" opacity="0.7" r="1.2" /><circle cx="320" cy="120" opacity="0.7" r="1.2" /><circle cx="180" cy="200" opacity="0.5" r="0.8" /><circle cx="90" cy="180" opacity="0.5" r="0.8" /><circle cx="450" cy="280" opacity="0.5" r="0.8" /><circle cx="270" cy="150" opacity="0.5" r="0.8" /><circle cx="350" cy="220" opacity="0.5" r="0.8" /></g><g transform="translate(250, 160) scale(0.85)"><path d="M-90,0 C-90,-25 -70,-45 -45,-50 L-20,-53 C-10,-55 10,-55 20,-53 L45,-50 C70,-45 90,-25 90,0 C90,25 70,35 45,40 C20,43 -20,43 -45,40 C-70,35 -90,25 -90,0Z" fill="#000000" opacity="0.3" transform="translate(5,5)" /><path d="M-90,0 C-90,-25 -70,-45 -45,-50 L-20,-53 C-10,-55 10,-55 20,-53 L45,-50 C70,-45 90,-25 90,0 C90,25 70,35 45,40 C20,43 -20,43 -45,40 C-70,35 -90,25 -90,0Z" fill="#75aadb" stroke="#ffffff" stroke-width="1.5" /><path d="M-70,15 L-60,15 L-65,45 L-70,15" fill="url(#engineGlow)" /><circle cx="-65" cy="45" fill="#ff6b00" opacity="0.6" r="3" /><path d="M-45,20 L-35,20 L-40,50 L-45,20" fill="url(#engineGlow)" /><circle cx="-40" cy="50" fill="#ff6b00" opacity="0.6" r="3" /><path d="M70,15 L80,15 L65,45 L70,15" fill="url(#engineGlow)" /><circle cx="65" cy="45" fill="#ff6b00" opacity="0.6" r="3" /><path d="M45,20 L55,20 L40,50 L45,20" fill="url(#engineGlow)" /><circle cx="40" cy="50" fill="#ff6b00" opacity="0.6" r="3" /><path d="M-35,-35 C-35,-45 -20,-50 0,-50 C20,-50 35,-45 35,-35 C35,-25 20,-15 0,-15 C-20,-15 -35,-25 -35,-35Z" fill="#cc0000" stroke="#ffffff" stroke-width="1" /><line opacity="0.7" stroke="#ffffff" stroke-width="0.5" x1="-25" x2="25" y1="-35" y2="-35" /><line opacity="0.7" stroke="#ffffff" stroke-width="0.5" x1="-25" x2="25" y1="-40" y2="-40" /><line opacity="0.7" stroke="#ffffff" stroke-width="0.5" x1="-25" x2="25" y1="-45" y2="-45" /><circle cx="-75" cy="-5" fill="#ffffff" opacity="0.9" r="1" /><circle cx="75" cy="-5" fill="#ffffff" opacity="0.9" r="1" /><circle cx="-65" cy="5" fill="#ffffff" opacity="0.9" r="1" /><circle cx="65" cy="5" fill="#ffffff" opacity="0.9" r="1" /></g><text fill="#ffffff" font-size="68" font-weight="bold" style="font-family: Arial, sans-serif" text-anchor="middle" x="250" y="280">アルト丸゚</text><text fill="#ffffff" font-size="44" font-weight="bold" style="font-family: Arial, sans-serif" text-anchor="middle" x="250" y="330">ARTURITO</text><text font-size="20" text-anchor="middle" x="165" y="380">🚀</text><text font-size="20" text-anchor="middle" x="215" y="380">🇦🇷</text><text font-size="20" text-anchor="middle" x="250" y="380">⭐</text><text font-size="20" text-anchor="middle" x="285" y="380">🇯🇵</text><text font-size="20" text-anchor="middle" x="335" y="380">🤖</text></svg>